<?xml version="1.0" standalone="no"?><!DOCTYPE svg PUBLIC "-//W3C//DTD SVG 1.1//EN" "http://www.w3.org/Graphics/SVG/1.1/DTD/svg11.dtd"><svg t="1759299556310" class="icon" viewBox="0 0 1024 1024" version="1.1" xmlns="http://www.w3.org/2000/svg" p-id="16305" xmlns:xlink="http://www.w3.org/1999/xlink" width="200" height="200"><path d="M768 550.4V301.7216L630.4768 153.6H204.8v691.2h281.6v102.4H102.4V51.2h572.7232L870.4 261.4784v288.9216h-102.4zM486.4 358.4H256V256h179.2l51.2 102.4z m76.8 153.6H256V409.6h256l51.2 102.4z" fill="#2c2c2c" p-id="16306"></path><path d="M708.608 545.1264l54.272 54.272-42.1376 42.1376 200.8576 2.9696v76.8h-384l70.5024-74.5984-0.512-0.512 100.9664-101.0688z m41.984 399.0528l-54.272-54.272 42.1376-42.1376L537.6 844.8V768H921.6l-70.5024 74.5984 0.512 0.512-100.9664 101.0688z" fill="#2c2c2c" p-id="16307"></path></svg>