<?xml version="1.0" standalone="no"?><!DOCTYPE svg PUBLIC "-//W3C//DTD SVG 1.1//EN" "http://www.w3.org/Graphics/SVG/1.1/DTD/svg11.dtd"><svg t="1759299642531" class="icon" viewBox="0 0 1024 1024" version="1.1" xmlns="http://www.w3.org/2000/svg" p-id="17343" xmlns:xlink="http://www.w3.org/1999/xlink" width="200" height="200"><path d="M721.2 306.9c0-13.8-11.2-25-25-25h-366c-13.8 0-25 11.2-25 25s11.3 25 25 25h366c13.7 0 25-11.2 25-25zM330.2 448.7c-13.8 0-25 11.2-25 25s11.3 25 25 25h166c13.8 0 25-11.3 25-25 0-13.8-11.2-25-25-25h-166zM802.4 812.9c10.1-12.6 18.3-26.5 24.6-41.5 9.3-22 14-45.3 14-69.3s-4.7-47.3-14-69.3c-9-21.2-21.8-40.2-38.1-56.6-16.3-16.3-35.4-29.2-56.6-38.1-22-9.3-45.3-14-69.3-14s-47.3 4.7-69.3 14c-21.2 9-40.2 21.8-56.6 38.1-16.3 16.3-29.2 35.4-38.1 56.6-9.3 22-14 45.3-14 69.3s4.7 47.3 14 69.3c9 21.2 21.8 40.2 38.1 56.6 16.3 16.3 35.4 29.2 56.6 38.1 22 9.3 45.3 14 69.3 14s47.3-4.7 69.3-14c12-5.1 23.2-11.4 33.7-18.8l73.5 73.5c9.7 9.7 25.6 9.7 35.4 0s9.7-25.6 0-35.4l-72.5-72.5zM663 830.2c-70.7 0-128-57.3-128-128s57.3-128 128-128 128 57.3 128 128-57.3 128-128 128z" fill="#2c2c2c" p-id="17344"></path><path d="M448.1 878.1H256.2c-35.2 0-64-28.8-64-64v-600c0-35.2 28.8-64 64-64h512c35.2 0 64 28.8 64 64V521c0 13.8 11.2 25 25 25s25-11.2 25-25V214.1c0-62.9-51.1-114-114-114h-512c-62.9 0-114 51.1-114 114v600c0 62.9 51.1 114 114 114h191.9c13.8 0 25-11.2 25-25s-11.2-25-25-25z" fill="#2c2c2c" p-id="17345"></path></svg>